<svg width="390" height="844" viewBox="0 0 390 844" xmlns="http://www.w3.org/2000/svg">
  <!-- Background -->
  <rect width="390" height="844" fill="#ecf0f1"/>
  
  <!-- Status Bar -->
  <rect width="390" height="44" fill="#000"/>
  <text x="20" y="28" font-family="Arial, sans-serif" font-size="14" font-weight="bold" fill="white">9:41</text>
  <text x="370" y="28" font-family="Arial, sans-serif" font-size="12" fill="white" text-anchor="end">100%</text>
  
  <!-- Header -->
  <rect y="44" width="390" height="60" fill="#2c3e50"/>
  <text x="20" y="80" font-family="Arial, sans-serif" font-size="18" font-weight="bold" fill="white">Dicoding Stories</text>
  
  <!-- Navigation Tabs -->
  <rect y="104" width="390" height="50" fill="#34495e"/>
  <rect x="20" y="114" width="80" height="30" fill="#3498db" rx="15"/>
  <text x="60" y="132" font-family="Arial, sans-serif" font-size="12" font-weight="bold" fill="white" text-anchor="middle">Home</text>
  <text x="140" y="132" font-family="Arial, sans-serif" font-size="12" fill="#bdc3c7" text-anchor="middle">Add</text>
  <text x="200" y="132" font-family="Arial, sans-serif" font-size="12" fill="#bdc3c7" text-anchor="middle">Map</text>
  
  <!-- Content Area -->
  <rect y="154" width="390" height="690" fill="white"/>
  
  <!-- Story Cards -->
  <g transform="translate(20, 174)">
    <!-- Card 1 -->
    <rect width="350" height="160" fill="#f8f9fa" rx="8" stroke="#dee2e6" stroke-width="1"/>
    <rect x="15" y="15" width="320" height="100" fill="#3498db" rx="4"/>
    <text x="175" y="70" font-family="Arial, sans-serif" font-size="14" font-weight="bold" fill="white" text-anchor="middle">Story Image</text>
    <text x="15" y="135" font-family="Arial, sans-serif" font-size="14" font-weight="bold" fill="#2c3e50">Amazing Mobile Story</text>
    <text x="15" y="150" font-family="Arial, sans-serif" font-size="11" fill="#7f8c8d">by John Doe • 2 hours ago</text>
  </g>
  
  <g transform="translate(20, 354)">
    <!-- Card 2 -->
    <rect width="350" height="160" fill="#f8f9fa" rx="8" stroke="#dee2e6" stroke-width="1"/>
    <rect x="15" y="15" width="320" height="100" fill="#e74c3c" rx="4"/>
    <text x="175" y="70" font-family="Arial, sans-serif" font-size="14" font-weight="bold" fill="white" text-anchor="middle">Story Image</text>
    <text x="15" y="135" font-family="Arial, sans-serif" font-size="14" font-weight="bold" fill="#2c3e50">Great Adventure</text>
    <text x="15" y="150" font-family="Arial, sans-serif" font-size="11" fill="#7f8c8d">by Jane Smith • 5 hours ago</text>
  </g>
  
  <g transform="translate(20, 534)">
    <!-- Card 3 -->
    <rect width="350" height="160" fill="#f8f9fa" rx="8" stroke="#dee2e6" stroke-width="1"/>
    <rect x="15" y="15" width="320" height="100" fill="#2ecc71" rx="4"/>
    <text x="175" y="70" font-family="Arial, sans-serif" font-size="14" font-weight="bold" fill="white" text-anchor="middle">Story Image</text>
    <text x="15" y="135" font-family="Arial, sans-serif" font-size="14" font-weight="bold" fill="#2c3e50">Travel Experience</text>
    <text x="15" y="150" font-family="Arial, sans-serif" font-size="11" fill="#7f8c8d">by Mike Johnson • 1 day ago</text>
  </g>
  
  <!-- Floating Action Button -->
  <circle cx="340" cy="750" r="25" fill="#3498db"/>
  <text x="340" y="758" font-family="Arial, sans-serif" font-size="20" font-weight="bold" fill="white" text-anchor="middle">+</text>
  
  <!-- PWA Install Prompt -->
  <rect x="20" y="714" width="280" height="40" fill="#4CAF50" rx="20"/>
  <text x="160" y="736" font-family="Arial, sans-serif" font-size="12" font-weight="bold" fill="white" text-anchor="middle">📱 Install App</text>
  
  <!-- Bottom Navigation Indicator -->
  <rect x="165" y="820" width="60" height="4" fill="#bdc3c7" rx="2"/>
</svg>
